<?xml version="1.0" encoding="utf-8" standalone="no"?>
<!DOCTYPE svg PUBLIC "-//W3C//DTD SVG 1.1//EN"
  "http://www.w3.org/Graphics/SVG/1.1/DTD/svg11.dtd">
<svg xmlns:xlink="http://www.w3.org/1999/xlink" width="460.8pt" height="345.6pt" viewBox="0 0 460.8 345.6" xmlns="http://www.w3.org/2000/svg" version="1.1">
 <metadata>
  <rdf:RDF xmlns:dc="http://purl.org/dc/elements/1.1/" xmlns:cc="http://creativecommons.org/ns#" xmlns:rdf="http://www.w3.org/1999/02/22-rdf-syntax-ns#">
   <cc:Work>
    <dc:type rdf:resource="http://purl.org/dc/dcmitype/StillImage"/>
    <dc:date>2023-04-14T22:36:13.227646</dc:date>
    <dc:format>image/svg+xml</dc:format>
    <dc:creator>
     <cc:Agent>
      <dc:title>Matplotlib v3.7.1, https://matplotlib.org/</dc:title>
     </cc:Agent>
    </dc:creator>
   </cc:Work>
  </rdf:RDF>
 </metadata>
 <defs>
  <style type="text/css">*{stroke-linejoin: round; stroke-linecap: butt}</style>
 </defs>
 <g id="figure_1">
  <g id="patch_1">
   <path d="M 0 345.6 
L 460.8 345.6 
L 460.8 0 
L 0 0 
z
" style="fill: #ffffff"/>
  </g>
  <g id="axes_1">
   <g id="patch_2">
    <path d="M 57.6 307.584 
L 414.72 307.584 
L 414.72 41.472 
L 57.6 41.472 
z
" style="fill: #ffffff"/>
   </g>
   <g id="matplotlib.axis_1">
    <g id="xtick_1">
     <g id="line2d_1">
      <defs>
       <path id="mcbb3baa345" d="M 0 0 
L 0 3.5 
" style="stroke: #000000; stroke-width: 0.8"/>
      </defs>
      <g>
       <use xlink:href="#mcbb3baa345" x="73.832727" y="307.584" style="stroke: #000000; stroke-width: 0.8"/>
      </g>
     </g>
     <g id="text_1">
      <!-- 0 -->
      <g transform="translate(70.651477 322.182437) scale(0.1 -0.1)">
       <defs>
        <path id="DejaVuSans-30" d="M 2034 4250 
Q 1547 4250 1301 3770 
Q 1056 3291 1056 2328 
Q 1056 1369 1301 889 
Q 1547 409 2034 409 
Q 2525 409 2770 889 
Q 3016 1369 3016 2328 
Q 3016 3291 2770 3770 
Q 2525 4250 2034 4250 
z
M 2034 4750 
Q 2819 4750 3233 4129 
Q 3647 3509 3647 2328 
Q 3647 1150 3233 529 
Q 2819 -91 2034 -91 
Q 1250 -91 836 529 
Q 422 1150 422 2328 
Q 422 3509 836 4129 
Q 1250 4750 2034 4750 
z
" transform="scale(0.015625)"/>
       </defs>
       <use xlink:href="#DejaVuSans-30"/>
      </g>
     </g>
    </g>
    <g id="xtick_2">
     <g id="line2d_2">
      <g>
       <use xlink:href="#mcbb3baa345" x="138.763636" y="307.584" style="stroke: #000000; stroke-width: 0.8"/>
      </g>
     </g>
     <g id="text_2">
      <!-- 20 -->
      <g transform="translate(132.401136 322.182437) scale(0.1 -0.1)">
       <defs>
        <path id="DejaVuSans-32" d="M 1228 531 
L 3431 531 
L 3431 0 
L 469 0 
L 469 531 
Q 828 903 1448 1529 
Q 2069 2156 2228 2338 
Q 2531 2678 2651 2914 
Q 2772 3150 2772 3378 
Q 2772 3750 2511 3984 
Q 2250 4219 1831 4219 
Q 1534 4219 1204 4116 
Q 875 4013 500 3803 
L 500 4441 
Q 881 4594 1212 4672 
Q 1544 4750 1819 4750 
Q 2544 4750 2975 4387 
Q 3406 4025 3406 3419 
Q 3406 3131 3298 2873 
Q 3191 2616 2906 2266 
Q 2828 2175 2409 1742 
Q 1991 1309 1228 531 
z
" transform="scale(0.015625)"/>
       </defs>
       <use xlink:href="#DejaVuSans-32"/>
       <use xlink:href="#DejaVuSans-30" x="63.623047"/>
      </g>
     </g>
    </g>
    <g id="xtick_3">
     <g id="line2d_3">
      <g>
       <use xlink:href="#mcbb3baa345" x="203.694545" y="307.584" style="stroke: #000000; stroke-width: 0.8"/>
      </g>
     </g>
     <g id="text_3">
      <!-- 40 -->
      <g transform="translate(197.332045 322.182437) scale(0.1 -0.1)">
       <defs>
        <path id="DejaVuSans-34" d="M 2419 4116 
L 825 1625 
L 2419 1625 
L 2419 4116 
z
M 2253 4666 
L 3047 4666 
L 3047 1625 
L 3713 1625 
L 3713 1100 
L 3047 1100 
L 3047 0 
L 2419 0 
L 2419 1100 
L 313 1100 
L 313 1709 
L 2253 4666 
z
" transform="scale(0.015625)"/>
       </defs>
       <use xlink:href="#DejaVuSans-34"/>
       <use xlink:href="#DejaVuSans-30" x="63.623047"/>
      </g>
     </g>
    </g>
    <g id="xtick_4">
     <g id="line2d_4">
      <g>
       <use xlink:href="#mcbb3baa345" x="268.625455" y="307.584" style="stroke: #000000; stroke-width: 0.8"/>
      </g>
     </g>
     <g id="text_4">
      <!-- 60 -->
      <g transform="translate(262.262955 322.182437) scale(0.1 -0.1)">
       <defs>
        <path id="DejaVuSans-36" d="M 2113 2584 
Q 1688 2584 1439 2293 
Q 1191 2003 1191 1497 
Q 1191 994 1439 701 
Q 1688 409 2113 409 
Q 2538 409 2786 701 
Q 3034 994 3034 1497 
Q 3034 2003 2786 2293 
Q 2538 2584 2113 2584 
z
M 3366 4563 
L 3366 3988 
Q 3128 4100 2886 4159 
Q 2644 4219 2406 4219 
Q 1781 4219 1451 3797 
Q 1122 3375 1075 2522 
Q 1259 2794 1537 2939 
Q 1816 3084 2150 3084 
Q 2853 3084 3261 2657 
Q 3669 2231 3669 1497 
Q 3669 778 3244 343 
Q 2819 -91 2113 -91 
Q 1303 -91 875 529 
Q 447 1150 447 2328 
Q 447 3434 972 4092 
Q 1497 4750 2381 4750 
Q 2619 4750 2861 4703 
Q 3103 4656 3366 4563 
z
" transform="scale(0.015625)"/>
       </defs>
       <use xlink:href="#DejaVuSans-36"/>
       <use xlink:href="#DejaVuSans-30" x="63.623047"/>
      </g>
     </g>
    </g>
    <g id="xtick_5">
     <g id="line2d_5">
      <g>
       <use xlink:href="#mcbb3baa345" x="333.556364" y="307.584" style="stroke: #000000; stroke-width: 0.8"/>
      </g>
     </g>
     <g id="text_5">
      <!-- 80 -->
      <g transform="translate(327.193864 322.182437) scale(0.1 -0.1)">
       <defs>
        <path id="DejaVuSans-38" d="M 2034 2216 
Q 1584 2216 1326 1975 
Q 1069 1734 1069 1313 
Q 1069 891 1326 650 
Q 1584 409 2034 409 
Q 2484 409 2743 651 
Q 3003 894 3003 1313 
Q 3003 1734 2745 1975 
Q 2488 2216 2034 2216 
z
M 1403 2484 
Q 997 2584 770 2862 
Q 544 3141 544 3541 
Q 544 4100 942 4425 
Q 1341 4750 2034 4750 
Q 2731 4750 3128 4425 
Q 3525 4100 3525 3541 
Q 3525 3141 3298 2862 
Q 3072 2584 2669 2484 
Q 3125 2378 3379 2068 
Q 3634 1759 3634 1313 
Q 3634 634 3220 271 
Q 2806 -91 2034 -91 
Q 1263 -91 848 271 
Q 434 634 434 1313 
Q 434 1759 690 2068 
Q 947 2378 1403 2484 
z
M 1172 3481 
Q 1172 3119 1398 2916 
Q 1625 2713 2034 2713 
Q 2441 2713 2670 2916 
Q 2900 3119 2900 3481 
Q 2900 3844 2670 4047 
Q 2441 4250 2034 4250 
Q 1625 4250 1398 4047 
Q 1172 3844 1172 3481 
z
" transform="scale(0.015625)"/>
       </defs>
       <use xlink:href="#DejaVuSans-38"/>
       <use xlink:href="#DejaVuSans-30" x="63.623047"/>
      </g>
     </g>
    </g>
    <g id="xtick_6">
     <g id="line2d_6">
      <g>
       <use xlink:href="#mcbb3baa345" x="398.487273" y="307.584" style="stroke: #000000; stroke-width: 0.8"/>
      </g>
     </g>
     <g id="text_6">
      <!-- 100 -->
      <g transform="translate(388.943523 322.182437) scale(0.1 -0.1)">
       <defs>
        <path id="DejaVuSans-31" d="M 794 531 
L 1825 531 
L 1825 4091 
L 703 3866 
L 703 4441 
L 1819 4666 
L 2450 4666 
L 2450 531 
L 3481 531 
L 3481 0 
L 794 0 
L 794 531 
z
" transform="scale(0.015625)"/>
       </defs>
       <use xlink:href="#DejaVuSans-31"/>
       <use xlink:href="#DejaVuSans-30" x="63.623047"/>
       <use xlink:href="#DejaVuSans-30" x="127.246094"/>
      </g>
     </g>
    </g>
    <g id="text_7">
     <!-- Number of steps -->
     <g transform="translate(194.656094 335.860562) scale(0.1 -0.1)">
      <defs>
       <path id="DejaVuSans-4e" d="M 628 4666 
L 1478 4666 
L 3547 763 
L 3547 4666 
L 4159 4666 
L 4159 0 
L 3309 0 
L 1241 3903 
L 1241 0 
L 628 0 
L 628 4666 
z
" transform="scale(0.015625)"/>
       <path id="DejaVuSans-75" d="M 544 1381 
L 544 3500 
L 1119 3500 
L 1119 1403 
Q 1119 906 1312 657 
Q 1506 409 1894 409 
Q 2359 409 2629 706 
Q 2900 1003 2900 1516 
L 2900 3500 
L 3475 3500 
L 3475 0 
L 2900 0 
L 2900 538 
Q 2691 219 2414 64 
Q 2138 -91 1772 -91 
Q 1169 -91 856 284 
Q 544 659 544 1381 
z
M 1991 3584 
L 1991 3584 
z
" transform="scale(0.015625)"/>
       <path id="DejaVuSans-6d" d="M 3328 2828 
Q 3544 3216 3844 3400 
Q 4144 3584 4550 3584 
Q 5097 3584 5394 3201 
Q 5691 2819 5691 2113 
L 5691 0 
L 5113 0 
L 5113 2094 
Q 5113 2597 4934 2840 
Q 4756 3084 4391 3084 
Q 3944 3084 3684 2787 
Q 3425 2491 3425 1978 
L 3425 0 
L 2847 0 
L 2847 2094 
Q 2847 2600 2669 2842 
Q 2491 3084 2119 3084 
Q 1678 3084 1418 2786 
Q 1159 2488 1159 1978 
L 1159 0 
L 581 0 
L 581 3500 
L 1159 3500 
L 1159 2956 
Q 1356 3278 1631 3431 
Q 1906 3584 2284 3584 
Q 2666 3584 2933 3390 
Q 3200 3197 3328 2828 
z
" transform="scale(0.015625)"/>
       <path id="DejaVuSans-62" d="M 3116 1747 
Q 3116 2381 2855 2742 
Q 2594 3103 2138 3103 
Q 1681 3103 1420 2742 
Q 1159 2381 1159 1747 
Q 1159 1113 1420 752 
Q 1681 391 2138 391 
Q 2594 391 2855 752 
Q 3116 1113 3116 1747 
z
M 1159 2969 
Q 1341 3281 1617 3432 
Q 1894 3584 2278 3584 
Q 2916 3584 3314 3078 
Q 3713 2572 3713 1747 
Q 3713 922 3314 415 
Q 2916 -91 2278 -91 
Q 1894 -91 1617 61 
Q 1341 213 1159 525 
L 1159 0 
L 581 0 
L 581 4863 
L 1159 4863 
L 1159 2969 
z
" transform="scale(0.015625)"/>
       <path id="DejaVuSans-65" d="M 3597 1894 
L 3597 1613 
L 953 1613 
Q 991 1019 1311 708 
Q 1631 397 2203 397 
Q 2534 397 2845 478 
Q 3156 559 3463 722 
L 3463 178 
Q 3153 47 2828 -22 
Q 2503 -91 2169 -91 
Q 1331 -91 842 396 
Q 353 884 353 1716 
Q 353 2575 817 3079 
Q 1281 3584 2069 3584 
Q 2775 3584 3186 3129 
Q 3597 2675 3597 1894 
z
M 3022 2063 
Q 3016 2534 2758 2815 
Q 2500 3097 2075 3097 
Q 1594 3097 1305 2825 
Q 1016 2553 972 2059 
L 3022 2063 
z
" transform="scale(0.015625)"/>
       <path id="DejaVuSans-72" d="M 2631 2963 
Q 2534 3019 2420 3045 
Q 2306 3072 2169 3072 
Q 1681 3072 1420 2755 
Q 1159 2438 1159 1844 
L 1159 0 
L 581 0 
L 581 3500 
L 1159 3500 
L 1159 2956 
Q 1341 3275 1631 3429 
Q 1922 3584 2338 3584 
Q 2397 3584 2469 3576 
Q 2541 3569 2628 3553 
L 2631 2963 
z
" transform="scale(0.015625)"/>
       <path id="DejaVuSans-20" transform="scale(0.015625)"/>
       <path id="DejaVuSans-6f" d="M 1959 3097 
Q 1497 3097 1228 2736 
Q 959 2375 959 1747 
Q 959 1119 1226 758 
Q 1494 397 1959 397 
Q 2419 397 2687 759 
Q 2956 1122 2956 1747 
Q 2956 2369 2687 2733 
Q 2419 3097 1959 3097 
z
M 1959 3584 
Q 2709 3584 3137 3096 
Q 3566 2609 3566 1747 
Q 3566 888 3137 398 
Q 2709 -91 1959 -91 
Q 1206 -91 779 398 
Q 353 888 353 1747 
Q 353 2609 779 3096 
Q 1206 3584 1959 3584 
z
" transform="scale(0.015625)"/>
       <path id="DejaVuSans-66" d="M 2375 4863 
L 2375 4384 
L 1825 4384 
Q 1516 4384 1395 4259 
Q 1275 4134 1275 3809 
L 1275 3500 
L 2222 3500 
L 2222 3053 
L 1275 3053 
L 1275 0 
L 697 0 
L 697 3053 
L 147 3053 
L 147 3500 
L 697 3500 
L 697 3744 
Q 697 4328 969 4595 
Q 1241 4863 1831 4863 
L 2375 4863 
z
" transform="scale(0.015625)"/>
       <path id="DejaVuSans-73" d="M 2834 3397 
L 2834 2853 
Q 2591 2978 2328 3040 
Q 2066 3103 1784 3103 
Q 1356 3103 1142 2972 
Q 928 2841 928 2578 
Q 928 2378 1081 2264 
Q 1234 2150 1697 2047 
L 1894 2003 
Q 2506 1872 2764 1633 
Q 3022 1394 3022 966 
Q 3022 478 2636 193 
Q 2250 -91 1575 -91 
Q 1294 -91 989 -36 
Q 684 19 347 128 
L 347 722 
Q 666 556 975 473 
Q 1284 391 1588 391 
Q 1994 391 2212 530 
Q 2431 669 2431 922 
Q 2431 1156 2273 1281 
Q 2116 1406 1581 1522 
L 1381 1569 
Q 847 1681 609 1914 
Q 372 2147 372 2553 
Q 372 3047 722 3315 
Q 1072 3584 1716 3584 
Q 2034 3584 2315 3537 
Q 2597 3491 2834 3397 
z
" transform="scale(0.015625)"/>
       <path id="DejaVuSans-74" d="M 1172 4494 
L 1172 3500 
L 2356 3500 
L 2356 3053 
L 1172 3053 
L 1172 1153 
Q 1172 725 1289 603 
Q 1406 481 1766 481 
L 2356 481 
L 2356 0 
L 1766 0 
Q 1100 0 847 248 
Q 594 497 594 1153 
L 594 3053 
L 172 3053 
L 172 3500 
L 594 3500 
L 594 4494 
L 1172 4494 
z
" transform="scale(0.015625)"/>
       <path id="DejaVuSans-70" d="M 1159 525 
L 1159 -1331 
L 581 -1331 
L 581 3500 
L 1159 3500 
L 1159 2969 
Q 1341 3281 1617 3432 
Q 1894 3584 2278 3584 
Q 2916 3584 3314 3078 
Q 3713 2572 3713 1747 
Q 3713 922 3314 415 
Q 2916 -91 2278 -91 
Q 1894 -91 1617 61 
Q 1341 213 1159 525 
z
M 3116 1747 
Q 3116 2381 2855 2742 
Q 2594 3103 2138 3103 
Q 1681 3103 1420 2742 
Q 1159 2381 1159 1747 
Q 1159 1113 1420 752 
Q 1681 391 2138 391 
Q 2594 391 2855 752 
Q 3116 1113 3116 1747 
z
" transform="scale(0.015625)"/>
      </defs>
      <use xlink:href="#DejaVuSans-4e"/>
      <use xlink:href="#DejaVuSans-75" x="74.804688"/>
      <use xlink:href="#DejaVuSans-6d" x="138.183594"/>
      <use xlink:href="#DejaVuSans-62" x="235.595703"/>
      <use xlink:href="#DejaVuSans-65" x="299.072266"/>
      <use xlink:href="#DejaVuSans-72" x="360.595703"/>
      <use xlink:href="#DejaVuSans-20" x="401.708984"/>
      <use xlink:href="#DejaVuSans-6f" x="433.496094"/>
      <use xlink:href="#DejaVuSans-66" x="494.677734"/>
      <use xlink:href="#DejaVuSans-20" x="529.882812"/>
      <use xlink:href="#DejaVuSans-73" x="561.669922"/>
      <use xlink:href="#DejaVuSans-74" x="613.769531"/>
      <use xlink:href="#DejaVuSans-65" x="652.978516"/>
      <use xlink:href="#DejaVuSans-70" x="714.501953"/>
      <use xlink:href="#DejaVuSans-73" x="777.978516"/>
     </g>
    </g>
   </g>
   <g id="matplotlib.axis_2">
    <g id="ytick_1">
     <g id="line2d_7">
      <defs>
       <path id="ma4906c0865" d="M 0 0 
L -3.5 0 
" style="stroke: #000000; stroke-width: 0.8"/>
      </defs>
      <g>
       <use xlink:href="#ma4906c0865" x="57.6" y="305.568" style="stroke: #000000; stroke-width: 0.8"/>
      </g>
     </g>
     <g id="text_8">
      <!-- −15 -->
      <g transform="translate(29.495313 309.367219) scale(0.1 -0.1)">
       <defs>
        <path id="DejaVuSans-2212" d="M 678 2272 
L 4684 2272 
L 4684 1741 
L 678 1741 
L 678 2272 
z
" transform="scale(0.015625)"/>
        <path id="DejaVuSans-35" d="M 691 4666 
L 3169 4666 
L 3169 4134 
L 1269 4134 
L 1269 2991 
Q 1406 3038 1543 3061 
Q 1681 3084 1819 3084 
Q 2600 3084 3056 2656 
Q 3513 2228 3513 1497 
Q 3513 744 3044 326 
Q 2575 -91 1722 -91 
Q 1428 -91 1123 -41 
Q 819 9 494 109 
L 494 744 
Q 775 591 1075 516 
Q 1375 441 1709 441 
Q 2250 441 2565 725 
Q 2881 1009 2881 1497 
Q 2881 1984 2565 2268 
Q 2250 2553 1709 2553 
Q 1456 2553 1204 2497 
Q 953 2441 691 2322 
L 691 4666 
z
" transform="scale(0.015625)"/>
       </defs>
       <use xlink:href="#DejaVuSans-2212"/>
       <use xlink:href="#DejaVuSans-31" x="83.789062"/>
       <use xlink:href="#DejaVuSans-35" x="147.412109"/>
      </g>
     </g>
    </g>
    <g id="ytick_2">
     <g id="line2d_8">
      <g>
       <use xlink:href="#ma4906c0865" x="57.6" y="255.168" style="stroke: #000000; stroke-width: 0.8"/>
      </g>
     </g>
     <g id="text_9">
      <!-- −10 -->
      <g transform="translate(29.495313 258.967219) scale(0.1 -0.1)">
       <use xlink:href="#DejaVuSans-2212"/>
       <use xlink:href="#DejaVuSans-31" x="83.789062"/>
       <use xlink:href="#DejaVuSans-30" x="147.412109"/>
      </g>
     </g>
    </g>
    <g id="ytick_3">
     <g id="line2d_9">
      <g>
       <use xlink:href="#ma4906c0865" x="57.6" y="204.768" style="stroke: #000000; stroke-width: 0.8"/>
      </g>
     </g>
     <g id="text_10">
      <!-- −5 -->
      <g transform="translate(35.857813 208.567219) scale(0.1 -0.1)">
       <use xlink:href="#DejaVuSans-2212"/>
       <use xlink:href="#DejaVuSans-35" x="83.789062"/>
      </g>
     </g>
    </g>
    <g id="ytick_4">
     <g id="line2d_10">
      <g>
       <use xlink:href="#ma4906c0865" x="57.6" y="154.368" style="stroke: #000000; stroke-width: 0.8"/>
      </g>
     </g>
     <g id="text_11">
      <!-- 0 -->
      <g transform="translate(44.2375 158.167219) scale(0.1 -0.1)">
       <use xlink:href="#DejaVuSans-30"/>
      </g>
     </g>
    </g>
    <g id="ytick_5">
     <g id="line2d_11">
      <g>
       <use xlink:href="#ma4906c0865" x="57.6" y="103.968" style="stroke: #000000; stroke-width: 0.8"/>
      </g>
     </g>
     <g id="text_12">
      <!-- 5 -->
      <g transform="translate(44.2375 107.767219) scale(0.1 -0.1)">
       <use xlink:href="#DejaVuSans-35"/>
      </g>
     </g>
    </g>
    <g id="ytick_6">
     <g id="line2d_12">
      <g>
       <use xlink:href="#ma4906c0865" x="57.6" y="53.568" style="stroke: #000000; stroke-width: 0.8"/>
      </g>
     </g>
     <g id="text_13">
      <!-- 10 -->
      <g transform="translate(37.875 57.367219) scale(0.1 -0.1)">
       <use xlink:href="#DejaVuSans-31"/>
       <use xlink:href="#DejaVuSans-30" x="63.623047"/>
      </g>
     </g>
    </g>
    <g id="text_14">
     <!-- Random Walk -->
     <g transform="translate(23.415625 208.788938) rotate(-90) scale(0.1 -0.1)">
      <defs>
       <path id="DejaVuSans-52" d="M 2841 2188 
Q 3044 2119 3236 1894 
Q 3428 1669 3622 1275 
L 4263 0 
L 3584 0 
L 2988 1197 
Q 2756 1666 2539 1819 
Q 2322 1972 1947 1972 
L 1259 1972 
L 1259 0 
L 628 0 
L 628 4666 
L 2053 4666 
Q 2853 4666 3247 4331 
Q 3641 3997 3641 3322 
Q 3641 2881 3436 2590 
Q 3231 2300 2841 2188 
z
M 1259 4147 
L 1259 2491 
L 2053 2491 
Q 2509 2491 2742 2702 
Q 2975 2913 2975 3322 
Q 2975 3731 2742 3939 
Q 2509 4147 2053 4147 
L 1259 4147 
z
" transform="scale(0.015625)"/>
       <path id="DejaVuSans-61" d="M 2194 1759 
Q 1497 1759 1228 1600 
Q 959 1441 959 1056 
Q 959 750 1161 570 
Q 1363 391 1709 391 
Q 2188 391 2477 730 
Q 2766 1069 2766 1631 
L 2766 1759 
L 2194 1759 
z
M 3341 1997 
L 3341 0 
L 2766 0 
L 2766 531 
Q 2569 213 2275 61 
Q 1981 -91 1556 -91 
Q 1019 -91 701 211 
Q 384 513 384 1019 
Q 384 1609 779 1909 
Q 1175 2209 1959 2209 
L 2766 2209 
L 2766 2266 
Q 2766 2663 2505 2880 
Q 2244 3097 1772 3097 
Q 1472 3097 1187 3025 
Q 903 2953 641 2809 
L 641 3341 
Q 956 3463 1253 3523 
Q 1550 3584 1831 3584 
Q 2591 3584 2966 3190 
Q 3341 2797 3341 1997 
z
" transform="scale(0.015625)"/>
       <path id="DejaVuSans-6e" d="M 3513 2113 
L 3513 0 
L 2938 0 
L 2938 2094 
Q 2938 2591 2744 2837 
Q 2550 3084 2163 3084 
Q 1697 3084 1428 2787 
Q 1159 2491 1159 1978 
L 1159 0 
L 581 0 
L 581 3500 
L 1159 3500 
L 1159 2956 
Q 1366 3272 1645 3428 
Q 1925 3584 2291 3584 
Q 2894 3584 3203 3211 
Q 3513 2838 3513 2113 
z
" transform="scale(0.015625)"/>
       <path id="DejaVuSans-64" d="M 2906 2969 
L 2906 4863 
L 3481 4863 
L 3481 0 
L 2906 0 
L 2906 525 
Q 2725 213 2448 61 
Q 2172 -91 1784 -91 
Q 1150 -91 751 415 
Q 353 922 353 1747 
Q 353 2572 751 3078 
Q 1150 3584 1784 3584 
Q 2172 3584 2448 3432 
Q 2725 3281 2906 2969 
z
M 947 1747 
Q 947 1113 1208 752 
Q 1469 391 1925 391 
Q 2381 391 2643 752 
Q 2906 1113 2906 1747 
Q 2906 2381 2643 2742 
Q 2381 3103 1925 3103 
Q 1469 3103 1208 2742 
Q 947 2381 947 1747 
z
" transform="scale(0.015625)"/>
       <path id="DejaVuSans-57" d="M 213 4666 
L 850 4666 
L 1831 722 
L 2809 4666 
L 3519 4666 
L 4500 722 
L 5478 4666 
L 6119 4666 
L 4947 0 
L 4153 0 
L 3169 4050 
L 2175 0 
L 1381 0 
L 213 4666 
z
" transform="scale(0.015625)"/>
       <path id="DejaVuSans-6c" d="M 603 4863 
L 1178 4863 
L 1178 0 
L 603 0 
L 603 4863 
z
" transform="scale(0.015625)"/>
       <path id="DejaVuSans-6b" d="M 581 4863 
L 1159 4863 
L 1159 1991 
L 2875 3500 
L 3609 3500 
L 1753 1863 
L 3688 0 
L 2938 0 
L 1159 1709 
L 1159 0 
L 581 0 
L 581 4863 
z
" transform="scale(0.015625)"/>
      </defs>
      <use xlink:href="#DejaVuSans-52"/>
      <use xlink:href="#DejaVuSans-61" x="67.232422"/>
      <use xlink:href="#DejaVuSans-6e" x="128.511719"/>
      <use xlink:href="#DejaVuSans-64" x="191.890625"/>
      <use xlink:href="#DejaVuSans-6f" x="255.367188"/>
      <use xlink:href="#DejaVuSans-6d" x="316.548828"/>
      <use xlink:href="#DejaVuSans-20" x="413.960938"/>
      <use xlink:href="#DejaVuSans-57" x="445.748047"/>
      <use xlink:href="#DejaVuSans-61" x="538.25"/>
      <use xlink:href="#DejaVuSans-6c" x="599.529297"/>
      <use xlink:href="#DejaVuSans-6b" x="627.3125"/>
     </g>
    </g>
   </g>
   <g id="line2d_13">
    <path d="M 73.832727 154.368 
L 77.079273 164.448 
L 80.325818 154.368 
L 83.572364 164.448 
L 86.818909 174.528 
L 90.065455 184.608 
L 93.312 194.688 
L 96.558545 204.768 
L 99.805091 194.688 
L 103.051636 184.608 
L 106.298182 174.528 
L 109.544727 184.608 
L 112.791273 174.528 
L 116.037818 184.608 
L 119.284364 174.528 
L 122.530909 184.608 
L 125.777455 174.528 
L 129.024 184.608 
L 132.270545 174.528 
L 135.517091 164.448 
L 138.763636 174.528 
L 142.010182 184.608 
L 145.256727 174.528 
L 148.503273 184.608 
L 151.749818 174.528 
L 154.996364 184.608 
L 158.242909 174.528 
L 161.489455 184.608 
L 164.736 194.688 
L 167.982545 204.768 
L 171.229091 214.848 
L 174.475636 224.928 
L 177.722182 214.848 
L 180.968727 224.928 
L 184.215273 214.848 
L 187.461818 204.768 
L 190.708364 214.848 
L 193.954909 224.928 
L 197.201455 214.848 
L 200.448 204.768 
L 203.694545 214.848 
L 206.941091 204.768 
L 210.187636 214.848 
L 213.434182 224.928 
L 216.680727 235.008 
L 219.927273 245.088 
L 223.173818 255.168 
L 226.420364 265.248 
L 229.666909 275.328 
L 232.913455 265.248 
L 236.16 255.168 
L 239.406545 245.088 
L 242.653091 235.008 
L 245.899636 224.928 
L 249.146182 235.008 
L 252.392727 245.088 
L 255.639273 235.008 
L 258.885818 224.928 
L 262.132364 214.848 
L 265.378909 204.768 
L 268.625455 194.688 
L 271.872 184.608 
L 275.118545 174.528 
L 278.365091 184.608 
L 281.611636 194.688 
L 284.858182 184.608 
L 288.104727 194.688 
L 291.351273 204.768 
L 294.597818 194.688 
L 297.844364 204.768 
L 301.090909 214.848 
L 304.337455 224.928 
L 307.584 235.008 
L 310.830545 245.088 
L 314.077091 235.008 
L 317.323636 245.088 
L 320.570182 255.168 
L 323.816727 265.248 
L 327.063273 275.328 
L 330.309818 285.408 
L 333.556364 295.488 
L 336.802909 285.408 
L 340.049455 275.328 
L 343.296 285.408 
L 346.542545 295.488 
L 349.789091 285.408 
L 353.035636 275.328 
L 356.282182 265.248 
L 359.528727 255.168 
L 362.775273 265.248 
L 366.021818 255.168 
L 369.268364 245.088 
L 372.514909 235.008 
L 375.761455 245.088 
L 379.008 255.168 
L 382.254545 245.088 
L 385.501091 235.008 
L 388.747636 245.088 
L 391.994182 235.008 
L 395.240727 245.088 
L 398.487273 255.168 
" clip-path="url(#pc6585a604e)" style="fill: none; stroke: #1f77b4; stroke-width: 1.5; stroke-linecap: square"/>
   </g>
   <g id="line2d_14">
    <path d="M 73.832727 154.368 
L 77.079273 164.448 
L 80.325818 174.528 
L 83.572364 164.448 
L 86.818909 154.368 
L 90.065455 164.448 
L 93.312 174.528 
L 96.558545 184.608 
L 99.805091 194.688 
L 103.051636 184.608 
L 106.298182 174.528 
L 109.544727 184.608 
L 112.791273 194.688 
L 116.037818 204.768 
L 119.284364 194.688 
L 122.530909 204.768 
L 125.777455 194.688 
L 129.024 184.608 
L 132.270545 174.528 
L 135.517091 184.608 
L 138.763636 174.528 
L 142.010182 164.448 
L 145.256727 154.368 
L 148.503273 164.448 
L 151.749818 174.528 
L 154.996364 164.448 
L 158.242909 174.528 
L 161.489455 184.608 
L 164.736 194.688 
L 167.982545 204.768 
L 171.229091 194.688 
L 174.475636 204.768 
L 177.722182 214.848 
L 180.968727 204.768 
L 184.215273 194.688 
L 187.461818 204.768 
L 190.708364 214.848 
L 193.954909 224.928 
L 197.201455 214.848 
L 200.448 224.928 
L 203.694545 214.848 
L 206.941091 204.768 
L 210.187636 194.688 
L 213.434182 184.608 
L 216.680727 194.688 
L 219.927273 204.768 
L 223.173818 214.848 
L 226.420364 204.768 
L 229.666909 214.848 
L 232.913455 204.768 
L 236.16 194.688 
L 239.406545 204.768 
L 242.653091 194.688 
L 245.899636 204.768 
L 249.146182 194.688 
L 252.392727 184.608 
L 255.639273 194.688 
L 258.885818 204.768 
L 262.132364 214.848 
L 265.378909 224.928 
L 268.625455 235.008 
L 271.872 245.088 
L 275.118545 235.008 
L 278.365091 224.928 
L 281.611636 235.008 
L 284.858182 224.928 
L 288.104727 235.008 
L 291.351273 224.928 
L 294.597818 214.848 
L 297.844364 224.928 
L 301.090909 235.008 
L 304.337455 245.088 
L 307.584 235.008 
L 310.830545 224.928 
L 314.077091 214.848 
L 317.323636 224.928 
L 320.570182 235.008 
L 323.816727 224.928 
L 327.063273 214.848 
L 330.309818 224.928 
L 333.556364 235.008 
L 336.802909 224.928 
L 340.049455 214.848 
L 343.296 224.928 
L 346.542545 214.848 
L 349.789091 224.928 
L 353.035636 214.848 
L 356.282182 224.928 
L 359.528727 235.008 
L 362.775273 245.088 
L 366.021818 235.008 
L 369.268364 224.928 
L 372.514909 235.008 
L 375.761455 245.088 
L 379.008 235.008 
L 382.254545 224.928 
L 385.501091 214.848 
L 388.747636 204.768 
L 391.994182 194.688 
L 395.240727 204.768 
L 398.487273 214.848 
" clip-path="url(#pc6585a604e)" style="fill: none; stroke: #ff7f0e; stroke-width: 1.5; stroke-linecap: square"/>
   </g>
   <g id="line2d_15">
    <path d="M 73.832727 154.368 
L 77.079273 164.448 
L 80.325818 154.368 
L 83.572364 164.448 
L 86.818909 174.528 
L 90.065455 164.448 
L 93.312 154.368 
L 96.558545 144.288 
L 99.805091 154.368 
L 103.051636 164.448 
L 106.298182 174.528 
L 109.544727 164.448 
L 112.791273 174.528 
L 116.037818 164.448 
L 119.284364 174.528 
L 122.530909 184.608 
L 125.777455 174.528 
L 129.024 184.608 
L 132.270545 174.528 
L 135.517091 164.448 
L 138.763636 174.528 
L 142.010182 184.608 
L 145.256727 194.688 
L 148.503273 204.768 
L 151.749818 214.848 
L 154.996364 204.768 
L 158.242909 194.688 
L 161.489455 184.608 
L 164.736 194.688 
L 167.982545 204.768 
L 171.229091 194.688 
L 174.475636 184.608 
L 177.722182 194.688 
L 180.968727 204.768 
L 184.215273 194.688 
L 187.461818 204.768 
L 190.708364 194.688 
L 193.954909 184.608 
L 197.201455 194.688 
L 200.448 204.768 
L 203.694545 214.848 
L 206.941091 224.928 
L 210.187636 235.008 
L 213.434182 224.928 
L 216.680727 214.848 
L 219.927273 224.928 
L 223.173818 214.848 
L 226.420364 204.768 
L 229.666909 214.848 
L 232.913455 224.928 
L 236.16 235.008 
L 239.406545 224.928 
L 242.653091 235.008 
L 245.899636 245.088 
L 249.146182 255.168 
L 252.392727 265.248 
L 255.639273 255.168 
L 258.885818 245.088 
L 262.132364 235.008 
L 265.378909 245.088 
L 268.625455 235.008 
L 271.872 224.928 
L 275.118545 214.848 
L 278.365091 224.928 
L 281.611636 235.008 
L 284.858182 245.088 
L 288.104727 235.008 
L 291.351273 245.088 
L 294.597818 235.008 
L 297.844364 245.088 
L 301.090909 255.168 
L 304.337455 265.248 
L 307.584 255.168 
L 310.830545 245.088 
L 314.077091 235.008 
L 317.323636 224.928 
L 320.570182 235.008 
L 323.816727 245.088 
L 327.063273 235.008 
L 330.309818 224.928 
L 333.556364 235.008 
L 336.802909 224.928 
L 340.049455 214.848 
L 343.296 204.768 
L 346.542545 194.688 
L 349.789091 204.768 
L 353.035636 194.688 
L 356.282182 204.768 
L 359.528727 214.848 
L 362.775273 224.928 
L 366.021818 214.848 
L 369.268364 204.768 
L 372.514909 214.848 
L 375.761455 204.768 
L 379.008 194.688 
L 382.254545 204.768 
L 385.501091 194.688 
L 388.747636 184.608 
L 391.994182 174.528 
L 395.240727 164.448 
L 398.487273 154.368 
" clip-path="url(#pc6585a604e)" style="fill: none; stroke: #2ca02c; stroke-width: 1.5; stroke-linecap: square"/>
   </g>
   <g id="line2d_16">
    <path d="M 73.832727 154.368 
L 77.079273 164.448 
L 80.325818 154.368 
L 83.572364 144.288 
L 86.818909 154.368 
L 90.065455 144.288 
L 93.312 154.368 
L 96.558545 144.288 
L 99.805091 134.208 
L 103.051636 124.128 
L 106.298182 134.208 
L 109.544727 144.288 
L 112.791273 134.208 
L 116.037818 144.288 
L 119.284364 154.368 
L 122.530909 164.448 
L 125.777455 154.368 
L 129.024 144.288 
L 132.270545 154.368 
L 135.517091 144.288 
L 138.763636 134.208 
L 142.010182 144.288 
L 145.256727 154.368 
L 148.503273 144.288 
L 151.749818 154.368 
L 154.996364 164.448 
L 158.242909 154.368 
L 161.489455 164.448 
L 164.736 154.368 
L 167.982545 144.288 
L 171.229091 134.208 
L 174.475636 144.288 
L 177.722182 134.208 
L 180.968727 124.128 
L 184.215273 134.208 
L 187.461818 124.128 
L 190.708364 114.048 
L 193.954909 124.128 
L 197.201455 114.048 
L 200.448 124.128 
L 203.694545 134.208 
L 206.941091 144.288 
L 210.187636 154.368 
L 213.434182 144.288 
L 216.680727 154.368 
L 219.927273 164.448 
L 223.173818 174.528 
L 226.420364 164.448 
L 229.666909 154.368 
L 232.913455 144.288 
L 236.16 134.208 
L 239.406545 124.128 
L 242.653091 114.048 
L 245.899636 103.968 
L 249.146182 114.048 
L 252.392727 124.128 
L 255.639273 114.048 
L 258.885818 103.968 
L 262.132364 114.048 
L 265.378909 124.128 
L 268.625455 114.048 
L 271.872 124.128 
L 275.118545 134.208 
L 278.365091 144.288 
L 281.611636 154.368 
L 284.858182 144.288 
L 288.104727 134.208 
L 291.351273 124.128 
L 294.597818 134.208 
L 297.844364 144.288 
L 301.090909 134.208 
L 304.337455 144.288 
L 307.584 134.208 
L 310.830545 124.128 
L 314.077091 114.048 
L 317.323636 103.968 
L 320.570182 114.048 
L 323.816727 103.968 
L 327.063273 93.888 
L 330.309818 83.808 
L 333.556364 73.728 
L 336.802909 63.648 
L 340.049455 73.728 
L 343.296 63.648 
L 346.542545 53.568 
L 349.789091 63.648 
L 353.035636 73.728 
L 356.282182 63.648 
L 359.528727 73.728 
L 362.775273 83.808 
L 366.021818 73.728 
L 369.268364 63.648 
L 372.514909 53.568 
L 375.761455 63.648 
L 379.008 73.728 
L 382.254545 83.808 
L 385.501091 73.728 
L 388.747636 83.808 
L 391.994182 93.888 
L 395.240727 103.968 
L 398.487273 114.048 
" clip-path="url(#pc6585a604e)" style="fill: none; stroke: #d62728; stroke-width: 1.5; stroke-linecap: square"/>
   </g>
   <g id="line2d_17">
    <path d="M 73.832727 154.368 
L 77.079273 164.448 
L 80.325818 154.368 
L 83.572364 164.448 
L 86.818909 174.528 
L 90.065455 184.608 
L 93.312 174.528 
L 96.558545 164.448 
L 99.805091 154.368 
L 103.051636 164.448 
L 106.298182 154.368 
L 109.544727 164.448 
L 112.791273 154.368 
L 116.037818 144.288 
L 119.284364 134.208 
L 122.530909 144.288 
L 125.777455 154.368 
L 129.024 144.288 
L 132.270545 134.208 
L 135.517091 124.128 
L 138.763636 134.208 
L 142.010182 144.288 
L 145.256727 154.368 
L 148.503273 144.288 
L 151.749818 134.208 
L 154.996364 144.288 
L 158.242909 134.208 
L 161.489455 144.288 
L 164.736 154.368 
L 167.982545 164.448 
L 171.229091 174.528 
L 174.475636 184.608 
L 177.722182 174.528 
L 180.968727 184.608 
L 184.215273 194.688 
L 187.461818 184.608 
L 190.708364 194.688 
L 193.954909 184.608 
L 197.201455 174.528 
L 200.448 184.608 
L 203.694545 174.528 
L 206.941091 164.448 
L 210.187636 174.528 
L 213.434182 164.448 
L 216.680727 154.368 
L 219.927273 164.448 
L 223.173818 154.368 
L 226.420364 144.288 
L 229.666909 154.368 
L 232.913455 164.448 
L 236.16 154.368 
L 239.406545 144.288 
L 242.653091 134.208 
L 245.899636 124.128 
L 249.146182 134.208 
L 252.392727 124.128 
L 255.639273 114.048 
L 258.885818 103.968 
L 262.132364 93.888 
L 265.378909 83.808 
L 268.625455 93.888 
L 271.872 103.968 
L 275.118545 114.048 
L 278.365091 103.968 
L 281.611636 114.048 
L 284.858182 124.128 
L 288.104727 134.208 
L 291.351273 144.288 
L 294.597818 134.208 
L 297.844364 144.288 
L 301.090909 134.208 
L 304.337455 144.288 
L 307.584 154.368 
L 310.830545 144.288 
L 314.077091 154.368 
L 317.323636 164.448 
L 320.570182 174.528 
L 323.816727 164.448 
L 327.063273 154.368 
L 330.309818 164.448 
L 333.556364 174.528 
L 336.802909 184.608 
L 340.049455 194.688 
L 343.296 204.768 
L 346.542545 194.688 
L 349.789091 184.608 
L 353.035636 174.528 
L 356.282182 184.608 
L 359.528727 174.528 
L 362.775273 164.448 
L 366.021818 154.368 
L 369.268364 144.288 
L 372.514909 134.208 
L 375.761455 124.128 
L 379.008 114.048 
L 382.254545 124.128 
L 385.501091 134.208 
L 388.747636 144.288 
L 391.994182 154.368 
L 395.240727 164.448 
L 398.487273 174.528 
" clip-path="url(#pc6585a604e)" style="fill: none; stroke: #9467bd; stroke-width: 1.5; stroke-linecap: square"/>
   </g>
   <g id="line2d_18">
    <path d="M 73.832727 154.368 
L 77.079273 144.288 
L 80.325818 140.112727 
L 83.572364 136.908928 
L 86.818909 134.208 
L 90.065455 131.828435 
L 93.312 129.677143 
L 96.558545 127.698827 
L 99.805091 125.857455 
L 103.051636 124.128 
L 106.298182 122.492241 
L 109.544727 120.936422 
L 112.791273 119.449856 
L 116.037818 118.024043 
L 119.284364 116.652094 
L 122.530909 115.328328 
L 125.777455 114.048 
L 129.024 112.807095 
L 132.270545 111.602182 
L 135.517091 110.430299 
L 138.763636 109.28887 
L 142.010182 108.175637 
L 145.256727 107.088609 
L 148.503273 106.026018 
L 151.749818 104.986287 
L 154.996364 103.968 
L 158.242909 102.969883 
L 161.489455 101.990784 
L 164.736 101.029654 
L 167.982545 100.085539 
L 171.229091 99.157566 
L 174.475636 98.244935 
L 177.722182 97.346909 
L 180.968727 96.462809 
L 184.215273 95.592005 
L 187.461818 94.733916 
L 190.708364 93.888 
L 193.954909 93.053754 
L 197.201455 92.230707 
L 200.448 91.41842 
L 203.694545 90.616482 
L 206.941091 89.824508 
L 210.187636 89.042134 
L 213.434182 88.26902 
L 216.680727 87.504844 
L 219.927273 86.749304 
L 223.173818 86.002114 
L 226.420364 85.263002 
L 229.666909 84.531711 
L 232.913455 83.808 
L 236.16 83.091636 
L 239.406545 82.382401 
L 242.653091 81.680086 
L 245.899636 80.984492 
L 249.146182 80.29543 
L 252.392727 79.612719 
L 255.639273 78.936187 
L 258.885818 78.265669 
L 262.132364 77.601007 
L 265.378909 76.942051 
L 268.625455 76.288656 
L 271.872 75.640683 
L 275.118545 74.998001 
L 278.365091 74.36048 
L 281.611636 73.728 
L 284.858182 73.100442 
L 288.104727 72.477693 
L 291.351273 71.859644 
L 294.597818 71.246191 
L 297.844364 70.637231 
L 301.090909 70.032669 
L 304.337455 69.43241 
L 307.584 68.836364 
L 310.830545 68.244442 
L 314.077091 67.656561 
L 317.323636 67.072639 
L 320.570182 66.492597 
L 323.816727 65.916359 
L 327.063273 65.34385 
L 330.309818 64.775 
L 333.556364 64.209739 
L 336.802909 63.648 
L 340.049455 63.089718 
L 343.296 62.53483 
L 346.542545 61.983274 
L 349.789091 61.434992 
L 353.035636 60.889926 
L 356.282182 60.348019 
L 359.528727 59.809218 
L 362.775273 59.27347 
L 366.021818 58.740724 
L 369.268364 58.210928 
L 372.514909 57.684036 
L 375.761455 57.16 
L 379.008 56.638774 
L 382.254545 56.120313 
L 385.501091 55.604574 
L 388.747636 55.091513 
L 391.994182 54.581091 
L 395.240727 54.073266 
" clip-path="url(#pc6585a604e)" style="fill: none; stroke-dasharray: 11.1,4.8; stroke-dashoffset: 0; stroke: #000000; stroke-width: 3"/>
   </g>
   <g id="line2d_19">
    <path d="M 73.832727 154.368 
L 77.079273 164.448 
L 80.325818 168.623273 
L 83.572364 171.827072 
L 86.818909 174.528 
L 90.065455 176.907565 
L 93.312 179.058857 
L 96.558545 181.037173 
L 99.805091 182.878545 
L 103.051636 184.608 
L 106.298182 186.243759 
L 109.544727 187.799578 
L 112.791273 189.286144 
L 116.037818 190.711957 
L 119.284364 192.083906 
L 122.530909 193.407672 
L 125.777455 194.688 
L 129.024 195.928905 
L 132.270545 197.133818 
L 135.517091 198.305701 
L 138.763636 199.44713 
L 142.010182 200.560363 
L 145.256727 201.647391 
L 148.503273 202.709982 
L 151.749818 203.749713 
L 154.996364 204.768 
L 158.242909 205.766117 
L 161.489455 206.745216 
L 164.736 207.706346 
L 167.982545 208.650461 
L 171.229091 209.578434 
L 174.475636 210.491065 
L 177.722182 211.389091 
L 180.968727 212.273191 
L 184.215273 213.143995 
L 187.461818 214.002084 
L 190.708364 214.848 
L 193.954909 215.682246 
L 197.201455 216.505293 
L 200.448 217.31758 
L 203.694545 218.119518 
L 206.941091 218.911492 
L 210.187636 219.693866 
L 213.434182 220.46698 
L 216.680727 221.231156 
L 219.927273 221.986696 
L 223.173818 222.733886 
L 226.420364 223.472998 
L 229.666909 224.204289 
L 232.913455 224.928 
L 236.16 225.644364 
L 239.406545 226.353599 
L 242.653091 227.055914 
L 245.899636 227.751508 
L 249.146182 228.44057 
L 252.392727 229.123281 
L 255.639273 229.799813 
L 258.885818 230.470331 
L 262.132364 231.134993 
L 265.378909 231.793949 
L 268.625455 232.447344 
L 271.872 233.095317 
L 275.118545 233.737999 
L 278.365091 234.37552 
L 281.611636 235.008 
L 284.858182 235.635558 
L 288.104727 236.258307 
L 291.351273 236.876356 
L 294.597818 237.489809 
L 297.844364 238.098769 
L 301.090909 238.703331 
L 304.337455 239.30359 
L 307.584 239.899636 
L 310.830545 240.491558 
L 314.077091 241.079439 
L 317.323636 241.663361 
L 320.570182 242.243403 
L 323.816727 242.819641 
L 327.063273 243.39215 
L 330.309818 243.961 
L 333.556364 244.526261 
L 336.802909 245.088 
L 340.049455 245.646282 
L 343.296 246.20117 
L 346.542545 246.752726 
L 349.789091 247.301008 
L 353.035636 247.846074 
L 356.282182 248.387981 
L 359.528727 248.926782 
L 362.775273 249.46253 
L 366.021818 249.995276 
L 369.268364 250.525072 
L 372.514909 251.051964 
L 375.761455 251.576 
L 379.008 252.097226 
L 382.254545 252.615687 
L 385.501091 253.131426 
L 388.747636 253.644487 
L 391.994182 254.154909 
L 395.240727 254.662734 
" clip-path="url(#pc6585a604e)" style="fill: none; stroke-dasharray: 11.1,4.8; stroke-dashoffset: 0; stroke: #000000; stroke-width: 3"/>
   </g>
   <g id="patch_3">
    <path d="M 57.6 307.584 
L 57.6 41.472 
" style="fill: none; stroke: #000000; stroke-width: 0.8; stroke-linejoin: miter; stroke-linecap: square"/>
   </g>
   <g id="patch_4">
    <path d="M 414.72 307.584 
L 414.72 41.472 
" style="fill: none; stroke: #000000; stroke-width: 0.8; stroke-linejoin: miter; stroke-linecap: square"/>
   </g>
   <g id="patch_5">
    <path d="M 57.6 307.584 
L 414.72 307.584 
" style="fill: none; stroke: #000000; stroke-width: 0.8; stroke-linejoin: miter; stroke-linecap: square"/>
   </g>
   <g id="patch_6">
    <path d="M 57.6 41.472 
L 414.72 41.472 
" style="fill: none; stroke: #000000; stroke-width: 0.8; stroke-linejoin: miter; stroke-linecap: square"/>
   </g>
   <g id="text_15">
    <!--  Simple Random Walk with p = 0.5 -->
    <g transform="translate(132.010312 35.472) scale(0.12 -0.12)">
     <defs>
      <path id="DejaVuSans-53" d="M 3425 4513 
L 3425 3897 
Q 3066 4069 2747 4153 
Q 2428 4238 2131 4238 
Q 1616 4238 1336 4038 
Q 1056 3838 1056 3469 
Q 1056 3159 1242 3001 
Q 1428 2844 1947 2747 
L 2328 2669 
Q 3034 2534 3370 2195 
Q 3706 1856 3706 1288 
Q 3706 609 3251 259 
Q 2797 -91 1919 -91 
Q 1588 -91 1214 -16 
Q 841 59 441 206 
L 441 856 
Q 825 641 1194 531 
Q 1563 422 1919 422 
Q 2459 422 2753 634 
Q 3047 847 3047 1241 
Q 3047 1584 2836 1778 
Q 2625 1972 2144 2069 
L 1759 2144 
Q 1053 2284 737 2584 
Q 422 2884 422 3419 
Q 422 4038 858 4394 
Q 1294 4750 2059 4750 
Q 2388 4750 2728 4690 
Q 3069 4631 3425 4513 
z
" transform="scale(0.015625)"/>
      <path id="DejaVuSans-69" d="M 603 3500 
L 1178 3500 
L 1178 0 
L 603 0 
L 603 3500 
z
M 603 4863 
L 1178 4863 
L 1178 4134 
L 603 4134 
L 603 4863 
z
" transform="scale(0.015625)"/>
      <path id="DejaVuSans-77" d="M 269 3500 
L 844 3500 
L 1563 769 
L 2278 3500 
L 2956 3500 
L 3675 769 
L 4391 3500 
L 4966 3500 
L 4050 0 
L 3372 0 
L 2619 2869 
L 1863 0 
L 1184 0 
L 269 3500 
z
" transform="scale(0.015625)"/>
      <path id="DejaVuSans-68" d="M 3513 2113 
L 3513 0 
L 2938 0 
L 2938 2094 
Q 2938 2591 2744 2837 
Q 2550 3084 2163 3084 
Q 1697 3084 1428 2787 
Q 1159 2491 1159 1978 
L 1159 0 
L 581 0 
L 581 4863 
L 1159 4863 
L 1159 2956 
Q 1366 3272 1645 3428 
Q 1925 3584 2291 3584 
Q 2894 3584 3203 3211 
Q 3513 2838 3513 2113 
z
" transform="scale(0.015625)"/>
      <path id="DejaVuSans-3d" d="M 678 2906 
L 4684 2906 
L 4684 2381 
L 678 2381 
L 678 2906 
z
M 678 1631 
L 4684 1631 
L 4684 1100 
L 678 1100 
L 678 1631 
z
" transform="scale(0.015625)"/>
      <path id="DejaVuSans-2e" d="M 684 794 
L 1344 794 
L 1344 0 
L 684 0 
L 684 794 
z
" transform="scale(0.015625)"/>
     </defs>
     <use xlink:href="#DejaVuSans-20"/>
     <use xlink:href="#DejaVuSans-53" x="31.787109"/>
     <use xlink:href="#DejaVuSans-69" x="95.263672"/>
     <use xlink:href="#DejaVuSans-6d" x="123.046875"/>
     <use xlink:href="#DejaVuSans-70" x="220.458984"/>
     <use xlink:href="#DejaVuSans-6c" x="283.935547"/>
     <use xlink:href="#DejaVuSans-65" x="311.71875"/>
     <use xlink:href="#DejaVuSans-20" x="373.242188"/>
     <use xlink:href="#DejaVuSans-52" x="405.029297"/>
     <use xlink:href="#DejaVuSans-61" x="472.261719"/>
     <use xlink:href="#DejaVuSans-6e" x="533.541016"/>
     <use xlink:href="#DejaVuSans-64" x="596.919922"/>
     <use xlink:href="#DejaVuSans-6f" x="660.396484"/>
     <use xlink:href="#DejaVuSans-6d" x="721.578125"/>
     <use xlink:href="#DejaVuSans-20" x="818.990234"/>
     <use xlink:href="#DejaVuSans-57" x="850.777344"/>
     <use xlink:href="#DejaVuSans-61" x="943.279297"/>
     <use xlink:href="#DejaVuSans-6c" x="1004.558594"/>
     <use xlink:href="#DejaVuSans-6b" x="1032.341797"/>
     <use xlink:href="#DejaVuSans-20" x="1090.251953"/>
     <use xlink:href="#DejaVuSans-77" x="1122.039062"/>
     <use xlink:href="#DejaVuSans-69" x="1203.826172"/>
     <use xlink:href="#DejaVuSans-74" x="1231.609375"/>
     <use xlink:href="#DejaVuSans-68" x="1270.818359"/>
     <use xlink:href="#DejaVuSans-20" x="1334.197266"/>
     <use xlink:href="#DejaVuSans-70" x="1365.984375"/>
     <use xlink:href="#DejaVuSans-20" x="1429.460938"/>
     <use xlink:href="#DejaVuSans-3d" x="1461.248047"/>
     <use xlink:href="#DejaVuSans-20" x="1545.037109"/>
     <use xlink:href="#DejaVuSans-30" x="1576.824219"/>
     <use xlink:href="#DejaVuSans-2e" x="1640.447266"/>
     <use xlink:href="#DejaVuSans-35" x="1672.234375"/>
    </g>
   </g>
  </g>
 </g>
 <defs>
  <clipPath id="pc6585a604e">
   <rect x="57.6" y="41.472" width="357.12" height="266.112"/>
  </clipPath>
 </defs>
</svg>
